<svg xmlns="http://www.w3.org/2000/svg" xmlns:xlink="http://www.w3.org/1999/xlink" width="209" zoomAndPan="magnify" viewBox="0 0 156.75 36.750001" height="49" preserveAspectRatio="xMidYMid meet" version="1.0"><defs><g/><clipPath id="7802cfceb2"><path d="M 0.40625 0 L 156.097656 0 L 156.097656 36.5 L 0.40625 36.5 Z M 0.40625 0 " clip-rule="nonzero"/></clipPath><linearGradient x1="0" gradientTransform="matrix(0.744932, 0, 0, 0.744932, 0.405403, 0.00000198649)" y1="24.5" x2="208.999991" gradientUnits="userSpaceOnUse" y2="24.5" id="471bae90d4"><stop stop-opacity="1" stop-color="rgb(96.859741%, 58.428955%, 88.62915%)" offset="0"/><stop stop-opacity="1" stop-color="rgb(96.871948%, 58.442688%, 88.40332%)" offset="0.00390625"/><stop stop-opacity="1" stop-color="rgb(96.884155%, 58.456421%, 88.179016%)" offset="0.0078125"/><stop stop-opacity="1" stop-color="rgb(96.896362%, 58.470154%, 87.953186%)" offset="0.0117188"/><stop stop-opacity="1" stop-color="rgb(96.908569%, 58.483887%, 87.728882%)" offset="0.015625"/><stop stop-opacity="1" stop-color="rgb(96.920776%, 58.49762%, 87.503052%)" offset="0.0195312"/><stop stop-opacity="1" stop-color="rgb(96.932983%, 58.511353%, 87.278748%)" offset="0.0234375"/><stop stop-opacity="1" stop-color="rgb(96.94519%, 58.525085%, 87.052917%)" offset="0.0273438"/><stop stop-opacity="1" stop-color="rgb(96.957397%, 58.538818%, 86.827087%)" offset="0.03125"/><stop stop-opacity="1" stop-color="rgb(96.969604%, 58.552551%, 86.601257%)" offset="0.0351562"/><stop stop-opacity="1" stop-color="rgb(96.981812%, 58.56781%, 86.376953%)" offset="0.0390625"/><stop stop-opacity="1" stop-color="rgb(96.994019%, 58.581543%, 86.151123%)" offset="0.0429688"/><stop stop-opacity="1" stop-color="rgb(97.006226%, 58.595276%, 85.926819%)" offset="0.046875"/><stop stop-opacity="1" stop-color="rgb(97.018433%, 58.609009%, 85.700989%)" offset="0.0507812"/><stop stop-opacity="1" stop-color="rgb(97.03064%, 58.622742%, 85.476685%)" offset="0.0546875"/><stop stop-opacity="1" stop-color="rgb(97.042847%, 58.636475%, 85.250854%)" offset="0.0585938"/><stop stop-opacity="1" stop-color="rgb(97.055054%, 58.650208%, 85.02655%)" offset="0.0625"/><stop stop-opacity="1" stop-color="rgb(97.067261%, 58.66394%, 84.80072%)" offset="0.0664062"/><stop stop-opacity="1" stop-color="rgb(97.079468%, 58.677673%, 84.576416%)" offset="0.0703125"/><stop stop-opacity="1" stop-color="rgb(97.091675%, 58.691406%, 84.350586%)" offset="0.0742188"/><stop stop-opacity="1" stop-color="rgb(97.103882%, 58.705139%, 84.124756%)" offset="0.078125"/><stop stop-opacity="1" stop-color="rgb(97.116089%, 58.718872%, 83.898926%)" offset="0.0820312"/><stop stop-opacity="1" stop-color="rgb(97.129822%, 58.732605%, 83.674622%)" offset="0.0859375"/><stop stop-opacity="1" stop-color="rgb(97.142029%, 58.746338%, 83.448792%)" offset="0.0898438"/><stop stop-opacity="1" stop-color="rgb(97.154236%, 58.760071%, 83.224487%)" offset="0.09375"/><stop stop-opacity="1" stop-color="rgb(97.166443%, 58.773804%, 82.998657%)" offset="0.0976562"/><stop stop-opacity="1" stop-color="rgb(97.17865%, 58.787537%, 82.774353%)" offset="0.101562"/><stop stop-opacity="1" stop-color="rgb(97.190857%, 58.80127%, 82.548523%)" offset="0.105469"/><stop stop-opacity="1" stop-color="rgb(97.203064%, 58.815002%, 82.324219%)" offset="0.109375"/><stop stop-opacity="1" stop-color="rgb(97.215271%, 58.828735%, 82.098389%)" offset="0.113281"/><stop stop-opacity="1" stop-color="rgb(97.227478%, 58.842468%, 81.874084%)" offset="0.117188"/><stop stop-opacity="1" stop-color="rgb(97.239685%, 58.856201%, 81.648254%)" offset="0.121094"/><stop stop-opacity="1" stop-color="rgb(97.251892%, 58.869934%, 81.422424%)" offset="0.125"/><stop stop-opacity="1" stop-color="rgb(97.264099%, 58.883667%, 81.196594%)" offset="0.128906"/><stop stop-opacity="1" stop-color="rgb(97.276306%, 58.8974%, 80.97229%)" offset="0.132812"/><stop stop-opacity="1" stop-color="rgb(97.288513%, 58.911133%, 80.74646%)" offset="0.136719"/><stop stop-opacity="1" stop-color="rgb(97.30072%, 58.926392%, 80.522156%)" offset="0.140625"/><stop stop-opacity="1" stop-color="rgb(97.312927%, 58.940125%, 80.296326%)" offset="0.144531"/><stop stop-opacity="1" stop-color="rgb(97.325134%, 58.953857%, 80.072021%)" offset="0.148438"/><stop stop-opacity="1" stop-color="rgb(97.337341%, 58.96759%, 79.846191%)" offset="0.152344"/><stop stop-opacity="1" stop-color="rgb(97.349548%, 58.981323%, 79.621887%)" offset="0.15625"/><stop stop-opacity="1" stop-color="rgb(97.361755%, 58.995056%, 79.396057%)" offset="0.160156"/><stop stop-opacity="1" stop-color="rgb(97.373962%, 59.008789%, 79.171753%)" offset="0.164062"/><stop stop-opacity="1" stop-color="rgb(97.386169%, 59.022522%, 78.945923%)" offset="0.167969"/><stop stop-opacity="1" stop-color="rgb(97.398376%, 59.036255%, 78.720093%)" offset="0.171875"/><stop stop-opacity="1" stop-color="rgb(97.410583%, 59.049988%, 78.494263%)" offset="0.175781"/><stop stop-opacity="1" stop-color="rgb(97.422791%, 59.063721%, 78.269958%)" offset="0.179688"/><stop stop-opacity="1" stop-color="rgb(97.434998%, 59.077454%, 78.044128%)" offset="0.183594"/><stop stop-opacity="1" stop-color="rgb(97.44873%, 59.091187%, 77.819824%)" offset="0.1875"/><stop stop-opacity="1" stop-color="rgb(97.460938%, 59.104919%, 77.593994%)" offset="0.191406"/><stop stop-opacity="1" stop-color="rgb(97.473145%, 59.118652%, 77.36969%)" offset="0.195312"/><stop stop-opacity="1" stop-color="rgb(97.485352%, 59.132385%, 77.14386%)" offset="0.199219"/><stop stop-opacity="1" stop-color="rgb(97.497559%, 59.146118%, 76.919556%)" offset="0.203125"/><stop stop-opacity="1" stop-color="rgb(97.509766%, 59.159851%, 76.693726%)" offset="0.207031"/><stop stop-opacity="1" stop-color="rgb(97.521973%, 59.173584%, 76.469421%)" offset="0.210938"/><stop stop-opacity="1" stop-color="rgb(97.53418%, 59.187317%, 76.243591%)" offset="0.214844"/><stop stop-opacity="1" stop-color="rgb(97.546387%, 59.20105%, 76.017761%)" offset="0.21875"/><stop stop-opacity="1" stop-color="rgb(97.558594%, 59.214783%, 75.791931%)" offset="0.222656"/><stop stop-opacity="1" stop-color="rgb(97.570801%, 59.228516%, 75.567627%)" offset="0.226562"/><stop stop-opacity="1" stop-color="rgb(97.583008%, 59.242249%, 75.341797%)" offset="0.230469"/><stop stop-opacity="1" stop-color="rgb(97.595215%, 59.255981%, 75.117493%)" offset="0.234375"/><stop stop-opacity="1" stop-color="rgb(97.607422%, 59.269714%, 74.891663%)" offset="0.238281"/><stop stop-opacity="1" stop-color="rgb(97.619629%, 59.283447%, 74.667358%)" offset="0.242188"/><stop stop-opacity="1" stop-color="rgb(97.631836%, 59.29718%, 74.441528%)" offset="0.246094"/><stop stop-opacity="1" stop-color="rgb(97.644043%, 59.312439%, 74.217224%)" offset="0.25"/><stop stop-opacity="1" stop-color="rgb(97.65625%, 59.326172%, 73.991394%)" offset="0.253906"/><stop stop-opacity="1" stop-color="rgb(97.668457%, 59.339905%, 73.76709%)" offset="0.257812"/><stop stop-opacity="1" stop-color="rgb(97.680664%, 59.353638%, 73.54126%)" offset="0.261719"/><stop stop-opacity="1" stop-color="rgb(97.692871%, 59.367371%, 73.31543%)" offset="0.265625"/><stop stop-opacity="1" stop-color="rgb(97.705078%, 59.381104%, 73.0896%)" offset="0.269531"/><stop stop-opacity="1" stop-color="rgb(97.717285%, 59.394836%, 72.865295%)" offset="0.273438"/><stop stop-opacity="1" stop-color="rgb(97.729492%, 59.408569%, 72.639465%)" offset="0.277344"/><stop stop-opacity="1" stop-color="rgb(97.741699%, 59.422302%, 72.415161%)" offset="0.28125"/><stop stop-opacity="1" stop-color="rgb(97.753906%, 59.436035%, 72.189331%)" offset="0.285156"/><stop stop-opacity="1" stop-color="rgb(97.767639%, 59.449768%, 71.965027%)" offset="0.289062"/><stop stop-opacity="1" stop-color="rgb(97.779846%, 59.463501%, 71.739197%)" offset="0.292969"/><stop stop-opacity="1" stop-color="rgb(97.792053%, 59.477234%, 71.514893%)" offset="0.296875"/><stop stop-opacity="1" stop-color="rgb(97.80426%, 59.490967%, 71.289062%)" offset="0.300781"/><stop stop-opacity="1" stop-color="rgb(97.816467%, 59.5047%, 71.064758%)" offset="0.304688"/><stop stop-opacity="1" stop-color="rgb(97.828674%, 59.518433%, 70.838928%)" offset="0.308594"/><stop stop-opacity="1" stop-color="rgb(97.840881%, 59.532166%, 70.613098%)" offset="0.3125"/><stop stop-opacity="1" stop-color="rgb(97.853088%, 59.545898%, 70.387268%)" offset="0.316406"/><stop stop-opacity="1" stop-color="rgb(97.865295%, 59.559631%, 70.162964%)" offset="0.320312"/><stop stop-opacity="1" stop-color="rgb(97.877502%, 59.573364%, 69.937134%)" offset="0.324219"/><stop stop-opacity="1" stop-color="rgb(97.889709%, 59.587097%, 69.71283%)" offset="0.328125"/><stop stop-opacity="1" stop-color="rgb(97.901917%, 59.60083%, 69.487%)" offset="0.332031"/><stop stop-opacity="1" stop-color="rgb(97.914124%, 59.614563%, 69.262695%)" offset="0.335938"/><stop stop-opacity="1" stop-color="rgb(97.926331%, 59.628296%, 69.036865%)" offset="0.339844"/><stop stop-opacity="1" stop-color="rgb(97.938538%, 59.642029%, 68.812561%)" offset="0.34375"/><stop stop-opacity="1" stop-color="rgb(97.950745%, 59.655762%, 68.586731%)" offset="0.347656"/><stop stop-opacity="1" stop-color="rgb(97.962952%, 59.669495%, 68.360901%)" offset="0.351562"/><stop stop-opacity="1" stop-color="rgb(97.975159%, 59.683228%, 68.135071%)" offset="0.355469"/><stop stop-opacity="1" stop-color="rgb(97.987366%, 59.698486%, 67.910767%)" offset="0.359375"/><stop stop-opacity="1" stop-color="rgb(97.999573%, 59.712219%, 67.684937%)" offset="0.363281"/><stop stop-opacity="1" stop-color="rgb(98.01178%, 59.725952%, 67.460632%)" offset="0.367188"/><stop stop-opacity="1" stop-color="rgb(98.023987%, 59.739685%, 67.234802%)" offset="0.371094"/><stop stop-opacity="1" stop-color="rgb(98.036194%, 59.753418%, 67.010498%)" offset="0.375"/><stop stop-opacity="1" stop-color="rgb(98.048401%, 59.767151%, 66.784668%)" offset="0.378906"/><stop stop-opacity="1" stop-color="rgb(98.060608%, 59.780884%, 66.560364%)" offset="0.382812"/><stop stop-opacity="1" stop-color="rgb(98.072815%, 59.794617%, 66.334534%)" offset="0.386719"/><stop stop-opacity="1" stop-color="rgb(98.086548%, 59.80835%, 66.110229%)" offset="0.390625"/><stop stop-opacity="1" stop-color="rgb(98.098755%, 59.822083%, 65.884399%)" offset="0.394531"/><stop stop-opacity="1" stop-color="rgb(98.110962%, 59.835815%, 65.658569%)" offset="0.398438"/><stop stop-opacity="1" stop-color="rgb(98.123169%, 59.849548%, 65.432739%)" offset="0.402344"/><stop stop-opacity="1" stop-color="rgb(98.135376%, 59.863281%, 65.208435%)" offset="0.40625"/><stop stop-opacity="1" stop-color="rgb(98.147583%, 59.877014%, 64.982605%)" offset="0.410156"/><stop stop-opacity="1" stop-color="rgb(98.15979%, 59.890747%, 64.758301%)" offset="0.414062"/><stop stop-opacity="1" stop-color="rgb(98.171997%, 59.90448%, 64.532471%)" offset="0.417969"/><stop stop-opacity="1" stop-color="rgb(98.184204%, 59.918213%, 64.308167%)" offset="0.421875"/><stop stop-opacity="1" stop-color="rgb(98.196411%, 59.931946%, 64.082336%)" offset="0.425781"/><stop stop-opacity="1" stop-color="rgb(98.208618%, 59.945679%, 63.858032%)" offset="0.429688"/><stop stop-opacity="1" stop-color="rgb(98.220825%, 59.959412%, 63.632202%)" offset="0.433594"/><stop stop-opacity="1" stop-color="rgb(98.233032%, 59.973145%, 63.407898%)" offset="0.4375"/><stop stop-opacity="1" stop-color="rgb(98.245239%, 59.986877%, 63.182068%)" offset="0.441406"/><stop stop-opacity="1" stop-color="rgb(98.257446%, 60.00061%, 62.956238%)" offset="0.445312"/><stop stop-opacity="1" stop-color="rgb(98.269653%, 60.014343%, 62.730408%)" offset="0.449219"/><stop stop-opacity="1" stop-color="rgb(98.28186%, 60.028076%, 62.506104%)" offset="0.453125"/><stop stop-opacity="1" stop-color="rgb(98.294067%, 60.041809%, 62.280273%)" offset="0.457031"/><stop stop-opacity="1" stop-color="rgb(98.306274%, 60.057068%, 62.055969%)" offset="0.460938"/><stop stop-opacity="1" stop-color="rgb(98.318481%, 60.070801%, 61.830139%)" offset="0.464844"/><stop stop-opacity="1" stop-color="rgb(98.330688%, 60.084534%, 61.605835%)" offset="0.46875"/><stop stop-opacity="1" stop-color="rgb(98.342896%, 60.098267%, 61.380005%)" offset="0.472656"/><stop stop-opacity="1" stop-color="rgb(98.355103%, 60.112%, 61.155701%)" offset="0.476562"/><stop stop-opacity="1" stop-color="rgb(98.36731%, 60.125732%, 60.929871%)" offset="0.480469"/><stop stop-opacity="1" stop-color="rgb(98.379517%, 60.139465%, 60.705566%)" offset="0.484375"/><stop stop-opacity="1" stop-color="rgb(98.391724%, 60.153198%, 60.479736%)" offset="0.488281"/><stop stop-opacity="1" stop-color="rgb(98.405457%, 60.166931%, 60.253906%)" offset="0.492188"/><stop stop-opacity="1" stop-color="rgb(98.417664%, 60.180664%, 60.028076%)" offset="0.496094"/><stop stop-opacity="1" stop-color="rgb(98.429871%, 60.194397%, 59.803772%)" offset="0.5"/><stop stop-opacity="1" stop-color="rgb(98.442078%, 60.20813%, 59.577942%)" offset="0.503906"/><stop stop-opacity="1" stop-color="rgb(98.454285%, 60.221863%, 59.353638%)" offset="0.507812"/><stop stop-opacity="1" stop-color="rgb(98.466492%, 60.235596%, 59.127808%)" offset="0.511719"/><stop stop-opacity="1" stop-color="rgb(98.478699%, 60.249329%, 58.903503%)" offset="0.515625"/><stop stop-opacity="1" stop-color="rgb(98.490906%, 60.263062%, 58.677673%)" offset="0.519531"/><stop stop-opacity="1" stop-color="rgb(98.503113%, 60.276794%, 58.453369%)" offset="0.523438"/><stop stop-opacity="1" stop-color="rgb(98.51532%, 60.290527%, 58.227539%)" offset="0.527344"/><stop stop-opacity="1" stop-color="rgb(98.527527%, 60.30426%, 58.003235%)" offset="0.53125"/><stop stop-opacity="1" stop-color="rgb(98.539734%, 60.317993%, 57.777405%)" offset="0.535156"/><stop stop-opacity="1" stop-color="rgb(98.551941%, 60.331726%, 57.551575%)" offset="0.539062"/><stop stop-opacity="1" stop-color="rgb(98.564148%, 60.345459%, 57.325745%)" offset="0.542969"/><stop stop-opacity="1" stop-color="rgb(98.576355%, 60.359192%, 57.10144%)" offset="0.546875"/><stop stop-opacity="1" stop-color="rgb(98.588562%, 60.372925%, 56.87561%)" offset="0.550781"/><stop stop-opacity="1" stop-color="rgb(98.600769%, 60.386658%, 56.651306%)" offset="0.554688"/><stop stop-opacity="1" stop-color="rgb(98.612976%, 60.400391%, 56.425476%)" offset="0.558594"/><stop stop-opacity="1" stop-color="rgb(98.625183%, 60.414124%, 56.201172%)" offset="0.5625"/><stop stop-opacity="1" stop-color="rgb(98.63739%, 60.427856%, 55.975342%)" offset="0.566406"/><stop stop-opacity="1" stop-color="rgb(98.649597%, 60.443115%, 55.751038%)" offset="0.570312"/><stop stop-opacity="1" stop-color="rgb(98.661804%, 60.456848%, 55.525208%)" offset="0.574219"/><stop stop-opacity="1" stop-color="rgb(98.674011%, 60.470581%, 55.300903%)" offset="0.578125"/><stop stop-opacity="1" stop-color="rgb(98.686218%, 60.484314%, 55.075073%)" offset="0.582031"/><stop stop-opacity="1" stop-color="rgb(98.698425%, 60.498047%, 54.849243%)" offset="0.585938"/><stop stop-opacity="1" stop-color="rgb(98.710632%, 60.51178%, 54.623413%)" offset="0.589844"/><stop stop-opacity="1" stop-color="rgb(98.724365%, 60.525513%, 54.399109%)" offset="0.59375"/><stop stop-opacity="1" stop-color="rgb(98.736572%, 60.539246%, 54.173279%)" offset="0.597656"/><stop stop-opacity="1" stop-color="rgb(98.748779%, 60.552979%, 53.948975%)" offset="0.601562"/><stop stop-opacity="1" stop-color="rgb(98.760986%, 60.566711%, 53.723145%)" offset="0.605469"/><stop stop-opacity="1" stop-color="rgb(98.773193%, 60.580444%, 53.49884%)" offset="0.609375"/><stop stop-opacity="1" stop-color="rgb(98.7854%, 60.594177%, 53.27301%)" offset="0.613281"/><stop stop-opacity="1" stop-color="rgb(98.797607%, 60.60791%, 53.048706%)" offset="0.617188"/><stop stop-opacity="1" stop-color="rgb(98.809814%, 60.621643%, 52.822876%)" offset="0.621094"/><stop stop-opacity="1" stop-color="rgb(98.822021%, 60.635376%, 52.598572%)" offset="0.625"/><stop stop-opacity="1" stop-color="rgb(98.834229%, 60.649109%, 52.372742%)" offset="0.628906"/><stop stop-opacity="1" stop-color="rgb(98.846436%, 60.662842%, 52.146912%)" offset="0.632812"/><stop stop-opacity="1" stop-color="rgb(98.858643%, 60.676575%, 51.921082%)" offset="0.636719"/><stop stop-opacity="1" stop-color="rgb(98.87085%, 60.690308%, 51.696777%)" offset="0.640625"/><stop stop-opacity="1" stop-color="rgb(98.883057%, 60.704041%, 51.470947%)" offset="0.644531"/><stop stop-opacity="1" stop-color="rgb(98.895264%, 60.717773%, 51.246643%)" offset="0.648438"/><stop stop-opacity="1" stop-color="rgb(98.907471%, 60.731506%, 51.020813%)" offset="0.652344"/><stop stop-opacity="1" stop-color="rgb(98.919678%, 60.745239%, 50.796509%)" offset="0.65625"/><stop stop-opacity="1" stop-color="rgb(98.931885%, 60.758972%, 50.570679%)" offset="0.660156"/><stop stop-opacity="1" stop-color="rgb(98.944092%, 60.772705%, 50.346375%)" offset="0.664062"/><stop stop-opacity="1" stop-color="rgb(98.956299%, 60.786438%, 50.120544%)" offset="0.667969"/><stop stop-opacity="1" stop-color="rgb(98.968506%, 60.801697%, 49.89624%)" offset="0.671875"/><stop stop-opacity="1" stop-color="rgb(98.980713%, 60.81543%, 49.67041%)" offset="0.675781"/><stop stop-opacity="1" stop-color="rgb(98.99292%, 60.829163%, 49.44458%)" offset="0.679688"/><stop stop-opacity="1" stop-color="rgb(99.005127%, 60.842896%, 49.21875%)" offset="0.683594"/><stop stop-opacity="1" stop-color="rgb(99.017334%, 60.856628%, 48.994446%)" offset="0.6875"/><stop stop-opacity="1" stop-color="rgb(99.029541%, 60.870361%, 48.768616%)" offset="0.691406"/><stop stop-opacity="1" stop-color="rgb(99.043274%, 60.884094%, 48.544312%)" offset="0.695312"/><stop stop-opacity="1" stop-color="rgb(99.055481%, 60.897827%, 48.318481%)" offset="0.699219"/><stop stop-opacity="1" stop-color="rgb(99.067688%, 60.91156%, 48.094177%)" offset="0.703125"/><stop stop-opacity="1" stop-color="rgb(99.079895%, 60.925293%, 47.868347%)" offset="0.707031"/><stop stop-opacity="1" stop-color="rgb(99.092102%, 60.939026%, 47.644043%)" offset="0.710938"/><stop stop-opacity="1" stop-color="rgb(99.104309%, 60.952759%, 47.418213%)" offset="0.714844"/><stop stop-opacity="1" stop-color="rgb(99.116516%, 60.966492%, 47.193909%)" offset="0.71875"/><stop stop-opacity="1" stop-color="rgb(99.128723%, 60.980225%, 46.968079%)" offset="0.722656"/><stop stop-opacity="1" stop-color="rgb(99.14093%, 60.993958%, 46.742249%)" offset="0.726562"/><stop stop-opacity="1" stop-color="rgb(99.153137%, 61.00769%, 46.516418%)" offset="0.730469"/><stop stop-opacity="1" stop-color="rgb(99.165344%, 61.021423%, 46.292114%)" offset="0.734375"/><stop stop-opacity="1" stop-color="rgb(99.177551%, 61.035156%, 46.066284%)" offset="0.738281"/><stop stop-opacity="1" stop-color="rgb(99.189758%, 61.048889%, 45.84198%)" offset="0.742188"/><stop stop-opacity="1" stop-color="rgb(99.201965%, 61.062622%, 45.61615%)" offset="0.746094"/><stop stop-opacity="1" stop-color="rgb(99.214172%, 61.076355%, 45.391846%)" offset="0.75"/><stop stop-opacity="1" stop-color="rgb(99.226379%, 61.090088%, 45.166016%)" offset="0.753906"/><stop stop-opacity="1" stop-color="rgb(99.238586%, 61.103821%, 44.941711%)" offset="0.757812"/><stop stop-opacity="1" stop-color="rgb(99.250793%, 61.117554%, 44.715881%)" offset="0.761719"/><stop stop-opacity="1" stop-color="rgb(99.263%, 61.131287%, 44.491577%)" offset="0.765625"/><stop stop-opacity="1" stop-color="rgb(99.275208%, 61.14502%, 44.265747%)" offset="0.769531"/><stop stop-opacity="1" stop-color="rgb(99.287415%, 61.158752%, 44.039917%)" offset="0.773438"/><stop stop-opacity="1" stop-color="rgb(99.299622%, 61.172485%, 43.814087%)" offset="0.777344"/><stop stop-opacity="1" stop-color="rgb(99.311829%, 61.187744%, 43.589783%)" offset="0.78125"/><stop stop-opacity="1" stop-color="rgb(99.324036%, 61.201477%, 43.363953%)" offset="0.785156"/><stop stop-opacity="1" stop-color="rgb(99.336243%, 61.21521%, 43.139648%)" offset="0.789062"/><stop stop-opacity="1" stop-color="rgb(99.34845%, 61.228943%, 42.913818%)" offset="0.792969"/><stop stop-opacity="1" stop-color="rgb(99.362183%, 61.242676%, 42.689514%)" offset="0.796875"/><stop stop-opacity="1" stop-color="rgb(99.37439%, 61.256409%, 42.463684%)" offset="0.800781"/><stop stop-opacity="1" stop-color="rgb(99.386597%, 61.270142%, 42.23938%)" offset="0.804688"/><stop stop-opacity="1" stop-color="rgb(99.398804%, 61.283875%, 42.01355%)" offset="0.808594"/><stop stop-opacity="1" stop-color="rgb(99.411011%, 61.297607%, 41.789246%)" offset="0.8125"/><stop stop-opacity="1" stop-color="rgb(99.423218%, 61.31134%, 41.563416%)" offset="0.816406"/><stop stop-opacity="1" stop-color="rgb(99.435425%, 61.325073%, 41.337585%)" offset="0.820312"/><stop stop-opacity="1" stop-color="rgb(99.447632%, 61.338806%, 41.111755%)" offset="0.824219"/><stop stop-opacity="1" stop-color="rgb(99.459839%, 61.352539%, 40.887451%)" offset="0.828125"/><stop stop-opacity="1" stop-color="rgb(99.472046%, 61.366272%, 40.661621%)" offset="0.832031"/><stop stop-opacity="1" stop-color="rgb(99.484253%, 61.380005%, 40.437317%)" offset="0.835938"/><stop stop-opacity="1" stop-color="rgb(99.49646%, 61.393738%, 40.211487%)" offset="0.839844"/><stop stop-opacity="1" stop-color="rgb(99.508667%, 61.407471%, 39.987183%)" offset="0.84375"/><stop stop-opacity="1" stop-color="rgb(99.520874%, 61.421204%, 39.761353%)" offset="0.847656"/><stop stop-opacity="1" stop-color="rgb(99.533081%, 61.434937%, 39.537048%)" offset="0.851562"/><stop stop-opacity="1" stop-color="rgb(99.545288%, 61.448669%, 39.311218%)" offset="0.855469"/><stop stop-opacity="1" stop-color="rgb(99.557495%, 61.462402%, 39.086914%)" offset="0.859375"/><stop stop-opacity="1" stop-color="rgb(99.569702%, 61.476135%, 38.861084%)" offset="0.863281"/><stop stop-opacity="1" stop-color="rgb(99.581909%, 61.489868%, 38.635254%)" offset="0.867188"/><stop stop-opacity="1" stop-color="rgb(99.594116%, 61.503601%, 38.409424%)" offset="0.871094"/><stop stop-opacity="1" stop-color="rgb(99.606323%, 61.517334%, 38.18512%)" offset="0.875"/><stop stop-opacity="1" stop-color="rgb(99.61853%, 61.531067%, 37.95929%)" offset="0.878906"/><stop stop-opacity="1" stop-color="rgb(99.630737%, 61.546326%, 37.734985%)" offset="0.882812"/><stop stop-opacity="1" stop-color="rgb(99.642944%, 61.560059%, 37.509155%)" offset="0.886719"/><stop stop-opacity="1" stop-color="rgb(99.655151%, 61.573792%, 37.284851%)" offset="0.890625"/><stop stop-opacity="1" stop-color="rgb(99.667358%, 61.587524%, 37.059021%)" offset="0.894531"/><stop stop-opacity="1" stop-color="rgb(99.681091%, 61.601257%, 36.834717%)" offset="0.898438"/><stop stop-opacity="1" stop-color="rgb(99.693298%, 61.61499%, 36.608887%)" offset="0.902344"/><stop stop-opacity="1" stop-color="rgb(99.705505%, 61.628723%, 36.384583%)" offset="0.90625"/><stop stop-opacity="1" stop-color="rgb(99.717712%, 61.642456%, 36.158752%)" offset="0.910156"/><stop stop-opacity="1" stop-color="rgb(99.729919%, 61.656189%, 35.932922%)" offset="0.914062"/><stop stop-opacity="1" stop-color="rgb(99.742126%, 61.669922%, 35.707092%)" offset="0.917969"/><stop stop-opacity="1" stop-color="rgb(99.754333%, 61.683655%, 35.482788%)" offset="0.921875"/><stop stop-opacity="1" stop-color="rgb(99.766541%, 61.697388%, 35.256958%)" offset="0.925781"/><stop stop-opacity="1" stop-color="rgb(99.778748%, 61.711121%, 35.032654%)" offset="0.929688"/><stop stop-opacity="1" stop-color="rgb(99.790955%, 61.724854%, 34.806824%)" offset="0.933594"/><stop stop-opacity="1" stop-color="rgb(99.803162%, 61.738586%, 34.58252%)" offset="0.9375"/><stop stop-opacity="1" stop-color="rgb(99.815369%, 61.752319%, 34.356689%)" offset="0.941406"/><stop stop-opacity="1" stop-color="rgb(99.827576%, 61.766052%, 34.132385%)" offset="0.945312"/><stop stop-opacity="1" stop-color="rgb(99.839783%, 61.779785%, 33.906555%)" offset="0.949219"/><stop stop-opacity="1" stop-color="rgb(99.85199%, 61.793518%, 33.682251%)" offset="0.953125"/><stop stop-opacity="1" stop-color="rgb(99.864197%, 61.807251%, 33.456421%)" offset="0.957031"/><stop stop-opacity="1" stop-color="rgb(99.876404%, 61.820984%, 33.230591%)" offset="0.960938"/><stop stop-opacity="1" stop-color="rgb(99.888611%, 61.834717%, 33.004761%)" offset="0.964844"/><stop stop-opacity="1" stop-color="rgb(99.900818%, 61.84845%, 32.780457%)" offset="0.96875"/><stop stop-opacity="1" stop-color="rgb(99.913025%, 61.862183%, 32.554626%)" offset="0.972656"/><stop stop-opacity="1" stop-color="rgb(99.925232%, 61.875916%, 32.330322%)" offset="0.976562"/><stop stop-opacity="1" stop-color="rgb(99.937439%, 61.889648%, 32.104492%)" offset="0.980469"/><stop stop-opacity="1" stop-color="rgb(99.949646%, 61.903381%, 31.880188%)" offset="0.984375"/><stop stop-opacity="1" stop-color="rgb(99.961853%, 61.917114%, 31.654358%)" offset="0.988281"/><stop stop-opacity="1" stop-color="rgb(99.97406%, 61.932373%, 31.430054%)" offset="0.992188"/><stop stop-opacity="1" stop-color="rgb(99.986267%, 61.946106%, 31.204224%)" offset="0.996094"/><stop stop-opacity="1" stop-color="rgb(99.998474%, 61.959839%, 30.979919%)" offset="1"/></linearGradient><clipPath id="f0df09e3b4"><path d="M 69 11 L 82 11 L 82 30.371094 L 69 30.371094 Z M 69 11 " clip-rule="nonzero"/></clipPath><clipPath id="b49e653e38"><rect x="0" width="143" y="0" height="31"/></clipPath></defs><g clip-path="url(#7802cfceb2)"><path fill="#ffffff" d="M 0.40625 0 L 156.097656 0 L 156.097656 36.5 L 0.40625 36.5 Z M 0.40625 0 " fill-opacity="1" fill-rule="nonzero"/><path fill="url(#471bae90d4)" d="M 0.40625 0 L 0.40625 36.5 L 156.097656 36.5 L 156.097656 0 Z M 0.40625 0 " fill-rule="nonzero"/></g><g transform="matrix(1, 0, 0, 1, 7, 3)"><g clip-path="url(#b49e653e38)"><g fill="#ffde59" fill-opacity="1"><g transform="translate(0.900183, 24.158021)"><g><path d="M 9.5625 0.34375 C 7.90625 0.34375 6.425781 -0.0195312 5.125 -0.75 C 3.820312 -1.488281 2.800781 -2.523438 2.0625 -3.859375 C 1.320312 -5.203125 0.953125 -6.765625 0.953125 -8.546875 C 0.953125 -10.316406 1.328125 -11.875 2.078125 -13.21875 C 2.828125 -14.5625 3.859375 -15.597656 5.171875 -16.328125 C 6.492188 -17.054688 7.992188 -17.421875 9.671875 -17.421875 C 10.492188 -17.421875 11.300781 -17.332031 12.09375 -17.15625 C 12.894531 -16.976562 13.609375 -16.734375 14.234375 -16.421875 L 13.984375 -14.28125 C 12.515625 -14.976562 11.066406 -15.328125 9.640625 -15.328125 C 8.335938 -15.328125 7.222656 -15.03125 6.296875 -14.4375 C 5.367188 -13.84375 4.664062 -13.03125 4.1875 -12 C 3.71875 -10.976562 3.484375 -9.828125 3.484375 -8.546875 C 3.484375 -7.253906 3.71875 -6.09375 4.1875 -5.0625 C 4.664062 -4.039062 5.359375 -3.234375 6.265625 -2.640625 C 7.179688 -2.046875 8.289062 -1.75 9.59375 -1.75 C 11.125 -1.75 12.585938 -2.09375 13.984375 -2.78125 L 14.234375 -0.640625 C 12.816406 0.015625 11.257812 0.34375 9.5625 0.34375 Z M 9.5625 0.34375 "/></g></g></g><g fill="#ffde59" fill-opacity="1"><g transform="translate(15.589372, 24.158021)"><g><path d="M 6.71875 0.25 C 5.488281 0.25 4.425781 -0.0195312 3.53125 -0.5625 C 2.644531 -1.113281 1.960938 -1.859375 1.484375 -2.796875 C 1.015625 -3.742188 0.78125 -4.804688 0.78125 -5.984375 C 0.78125 -7.148438 1.015625 -8.203125 1.484375 -9.140625 C 1.960938 -10.085938 2.644531 -10.832031 3.53125 -11.375 C 4.425781 -11.925781 5.488281 -12.203125 6.71875 -12.203125 C 7.914062 -12.203125 8.96875 -11.925781 9.875 -11.375 C 10.78125 -10.832031 11.46875 -10.085938 11.9375 -9.140625 C 12.40625 -8.203125 12.640625 -7.148438 12.640625 -5.984375 C 12.640625 -4.804688 12.40625 -3.742188 11.9375 -2.796875 C 11.46875 -1.859375 10.78125 -1.113281 9.875 -0.5625 C 8.96875 -0.0195312 7.914062 0.25 6.71875 0.25 Z M 6.71875 -1.703125 C 7.882812 -1.703125 8.785156 -2.078125 9.421875 -2.828125 C 10.066406 -3.578125 10.390625 -4.628906 10.390625 -5.984375 C 10.390625 -7.328125 10.066406 -8.375 9.421875 -9.125 C 8.785156 -9.875 7.882812 -10.25 6.71875 -10.25 C 5.539062 -10.25 4.628906 -9.875 3.984375 -9.125 C 3.347656 -8.375 3.03125 -7.328125 3.03125 -5.984375 C 3.03125 -4.628906 3.347656 -3.578125 3.984375 -2.828125 C 4.628906 -2.078125 5.539062 -1.703125 6.71875 -1.703125 Z M 6.71875 -1.703125 "/></g></g></g><g fill="#ffde59" fill-opacity="1"><g transform="translate(29.009737, 24.158021)"><g><path d="M 15.453125 -12.203125 C 18.503906 -12.203125 20.03125 -10.484375 20.03125 -7.046875 L 20.03125 0 L 17.84375 0 L 17.84375 -7.03125 C 17.84375 -8.15625 17.617188 -8.972656 17.171875 -9.484375 C 16.734375 -9.992188 16.019531 -10.25 15.03125 -10.25 C 12.914062 -10.25 11.859375 -9.144531 11.859375 -6.9375 L 11.859375 0 L 9.671875 0 L 9.671875 -6.59375 C 9.671875 -7.957031 9.425781 -8.90625 8.9375 -9.4375 C 8.457031 -9.976562 7.765625 -10.25 6.859375 -10.25 C 6.140625 -10.25 5.503906 -10.117188 4.953125 -9.859375 C 4.398438 -9.597656 3.976562 -9.207031 3.6875 -8.6875 L 3.6875 0 L 1.484375 0 L 1.484375 -11.953125 L 3.203125 -11.953125 L 3.4375 -10.6875 C 4.039062 -11.226562 4.644531 -11.613281 5.25 -11.84375 C 5.863281 -12.082031 6.519531 -12.203125 7.21875 -12.203125 C 9.039062 -12.203125 10.328125 -11.40625 11.078125 -9.8125 C 11.910156 -11.40625 13.367188 -12.203125 15.453125 -12.203125 Z M 15.453125 -12.203125 "/></g></g></g><g fill="#ffde59" fill-opacity="1"><g transform="translate(50.409116, 24.158021)"><g><path d="M 1.484375 -17.078125 L 3.6875 -17.078125 L 3.6875 -14.640625 L 1.484375 -14.640625 Z M 1.484375 -11.953125 L 3.6875 -11.953125 L 3.6875 0 L 1.484375 0 Z M 1.484375 -11.953125 "/></g></g></g><g fill="#ffde59" fill-opacity="1"><g transform="translate(55.582052, 24.158021)"><g><path d="M 7.390625 -12.203125 C 10.648438 -12.203125 12.28125 -10.332031 12.28125 -6.59375 L 12.28125 0 L 10.078125 0 L 10.078125 -6.59375 C 10.078125 -7.875 9.835938 -8.800781 9.359375 -9.375 C 8.878906 -9.957031 8.078125 -10.25 6.953125 -10.25 C 6.234375 -10.25 5.582031 -10.117188 5 -9.859375 C 4.414062 -9.597656 3.976562 -9.207031 3.6875 -8.6875 L 3.6875 0 L 1.484375 0 L 1.484375 -11.953125 L 3.203125 -11.953125 L 3.4375 -10.6875 C 4.070312 -11.257812 4.710938 -11.65625 5.359375 -11.875 C 6.003906 -12.09375 6.679688 -12.203125 7.390625 -12.203125 Z M 7.390625 -12.203125 "/></g></g></g><g clip-path="url(#f0df09e3b4)"><g fill="#ffde59" fill-opacity="1"><g transform="translate(69.222012, 24.158021)"><g><path d="M 6.328125 6.09375 C 4.628906 6.09375 3.253906 5.785156 2.203125 5.171875 C 1.160156 4.554688 0.640625 3.675781 0.640625 2.53125 C 0.640625 1.28125 1.328125 0.347656 2.703125 -0.265625 C 1.921875 -0.660156 1.53125 -1.164062 1.53125 -1.78125 C 1.53125 -2.5625 2.003906 -3.140625 2.953125 -3.515625 C 2.285156 -3.921875 1.769531 -4.472656 1.40625 -5.171875 C 1.050781 -5.867188 0.875 -6.660156 0.875 -7.546875 C 0.875 -8.421875 1.070312 -9.210938 1.46875 -9.921875 C 1.875 -10.628906 2.445312 -11.1875 3.1875 -11.59375 C 3.925781 -12 4.800781 -12.203125 5.8125 -12.203125 C 6.882812 -12.203125 7.859375 -11.894531 8.734375 -11.28125 C 9.597656 -11.769531 10.59375 -12.015625 11.71875 -12.015625 L 11.90625 -12.015625 L 11.640625 -10.546875 L 11.078125 -10.546875 C 10.929688 -10.546875 10.71875 -10.53125 10.4375 -10.5 C 10.164062 -10.46875 9.925781 -10.425781 9.71875 -10.375 C 10.050781 -9.976562 10.304688 -9.535156 10.484375 -9.046875 C 10.671875 -8.566406 10.765625 -8.066406 10.765625 -7.546875 C 10.765625 -6.628906 10.5625 -5.804688 10.15625 -5.078125 C 9.757812 -4.359375 9.1875 -3.789062 8.4375 -3.375 C 7.695312 -2.96875 6.820312 -2.765625 5.8125 -2.765625 C 5.226562 -2.765625 4.691406 -2.835938 4.203125 -2.984375 C 3.828125 -2.847656 3.640625 -2.632812 3.640625 -2.34375 C 3.640625 -1.945312 4.085938 -1.6875 4.984375 -1.5625 L 8.171875 -1.046875 C 9.503906 -0.835938 10.515625 -0.457031 11.203125 0.09375 C 11.890625 0.644531 12.234375 1.410156 12.234375 2.390625 C 12.234375 3.609375 11.707031 4.53125 10.65625 5.15625 C 9.601562 5.78125 8.160156 6.09375 6.328125 6.09375 Z M 5.8125 -4.515625 C 6.71875 -4.515625 7.421875 -4.785156 7.921875 -5.328125 C 8.421875 -5.878906 8.671875 -6.609375 8.671875 -7.515625 C 8.671875 -8.390625 8.421875 -9.097656 7.921875 -9.640625 C 7.421875 -10.179688 6.71875 -10.453125 5.8125 -10.453125 C 4.894531 -10.453125 4.191406 -10.179688 3.703125 -9.640625 C 3.222656 -9.097656 2.984375 -8.390625 2.984375 -7.515625 C 2.984375 -6.609375 3.222656 -5.878906 3.703125 -5.328125 C 4.191406 -4.785156 4.894531 -4.515625 5.8125 -4.515625 Z M 6.515625 4.15625 C 7.640625 4.15625 8.5 4.003906 9.09375 3.703125 C 9.695312 3.410156 10 2.988281 10 2.4375 C 10 2.019531 9.816406 1.679688 9.453125 1.421875 C 9.085938 1.171875 8.539062 0.972656 7.8125 0.828125 L 4.390625 0.25 C 3.898438 0.46875 3.5 0.742188 3.1875 1.078125 C 2.882812 1.421875 2.734375 1.796875 2.734375 2.203125 C 2.734375 2.867188 3.066406 3.359375 3.734375 3.671875 C 4.398438 3.992188 5.328125 4.15625 6.515625 4.15625 Z M 6.515625 4.15625 "/></g></g></g></g><g fill="#ffde59" fill-opacity="1"><g transform="translate(81.373538, 24.158021)"><g/></g></g><g fill="#ffde59" fill-opacity="1"><g transform="translate(86.86368, 24.158021)"><g><path d="M 6.828125 0.34375 C 5.828125 0.34375 4.804688 0.234375 3.765625 0.015625 C 2.722656 -0.203125 1.882812 -0.457031 1.25 -0.75 L 1.5625 -3.21875 C 2.375 -2.832031 3.289062 -2.488281 4.3125 -2.1875 C 5.34375 -1.894531 6.363281 -1.75 7.375 -1.75 C 8.507812 -1.75 9.390625 -1.957031 10.015625 -2.375 C 10.640625 -2.789062 10.953125 -3.414062 10.953125 -4.25 C 10.953125 -4.863281 10.789062 -5.378906 10.46875 -5.796875 C 10.15625 -6.210938 9.691406 -6.5625 9.078125 -6.84375 C 8.472656 -7.125 7.628906 -7.429688 6.546875 -7.765625 C 5.429688 -8.085938 4.507812 -8.4375 3.78125 -8.8125 C 3.050781 -9.1875 2.460938 -9.695312 2.015625 -10.34375 C 1.566406 -11 1.34375 -11.820312 1.34375 -12.8125 C 1.34375 -14.195312 1.875 -15.3125 2.9375 -16.15625 C 4.007812 -17 5.507812 -17.421875 7.4375 -17.421875 C 8.476562 -17.421875 9.46875 -17.304688 10.40625 -17.078125 C 11.34375 -16.859375 12.160156 -16.582031 12.859375 -16.25 L 12.625 -13.796875 C 11.707031 -14.328125 10.828125 -14.710938 9.984375 -14.953125 C 9.140625 -15.203125 8.257812 -15.328125 7.34375 -15.328125 C 6.289062 -15.328125 5.445312 -15.128906 4.8125 -14.734375 C 4.1875 -14.347656 3.875 -13.75 3.875 -12.9375 C 3.875 -12.382812 4.015625 -11.925781 4.296875 -11.5625 C 4.585938 -11.207031 5 -10.90625 5.53125 -10.65625 C 6.070312 -10.40625 6.820312 -10.128906 7.78125 -9.828125 C 9.707031 -9.242188 11.140625 -8.550781 12.078125 -7.75 C 13.023438 -6.945312 13.5 -5.835938 13.5 -4.421875 C 13.5 -2.921875 12.9375 -1.75 11.8125 -0.90625 C 10.6875 -0.0703125 9.023438 0.34375 6.828125 0.34375 Z M 6.828125 0.34375 "/></g></g></g><g fill="#ffde59" fill-opacity="1"><g transform="translate(101.113664, 24.158021)"><g><path d="M 6.71875 0.25 C 5.488281 0.25 4.425781 -0.0195312 3.53125 -0.5625 C 2.644531 -1.113281 1.960938 -1.859375 1.484375 -2.796875 C 1.015625 -3.742188 0.78125 -4.804688 0.78125 -5.984375 C 0.78125 -7.148438 1.015625 -8.203125 1.484375 -9.140625 C 1.960938 -10.085938 2.644531 -10.832031 3.53125 -11.375 C 4.425781 -11.925781 5.488281 -12.203125 6.71875 -12.203125 C 7.914062 -12.203125 8.96875 -11.925781 9.875 -11.375 C 10.78125 -10.832031 11.46875 -10.085938 11.9375 -9.140625 C 12.40625 -8.203125 12.640625 -7.148438 12.640625 -5.984375 C 12.640625 -4.804688 12.40625 -3.742188 11.9375 -2.796875 C 11.46875 -1.859375 10.78125 -1.113281 9.875 -0.5625 C 8.96875 -0.0195312 7.914062 0.25 6.71875 0.25 Z M 6.71875 -1.703125 C 7.882812 -1.703125 8.785156 -2.078125 9.421875 -2.828125 C 10.066406 -3.578125 10.390625 -4.628906 10.390625 -5.984375 C 10.390625 -7.328125 10.066406 -8.375 9.421875 -9.125 C 8.785156 -9.875 7.882812 -10.25 6.71875 -10.25 C 5.539062 -10.25 4.628906 -9.875 3.984375 -9.125 C 3.347656 -8.375 3.03125 -7.328125 3.03125 -5.984375 C 3.03125 -4.628906 3.347656 -3.578125 3.984375 -2.828125 C 4.628906 -2.078125 5.539062 -1.703125 6.71875 -1.703125 Z M 6.71875 -1.703125 "/></g></g></g><g fill="#ffde59" fill-opacity="1"><g transform="translate(114.534029, 24.158021)"><g><path d="M 6.71875 0.25 C 5.488281 0.25 4.425781 -0.0195312 3.53125 -0.5625 C 2.644531 -1.113281 1.960938 -1.859375 1.484375 -2.796875 C 1.015625 -3.742188 0.78125 -4.804688 0.78125 -5.984375 C 0.78125 -7.148438 1.015625 -8.203125 1.484375 -9.140625 C 1.960938 -10.085938 2.644531 -10.832031 3.53125 -11.375 C 4.425781 -11.925781 5.488281 -12.203125 6.71875 -12.203125 C 7.914062 -12.203125 8.96875 -11.925781 9.875 -11.375 C 10.78125 -10.832031 11.46875 -10.085938 11.9375 -9.140625 C 12.40625 -8.203125 12.640625 -7.148438 12.640625 -5.984375 C 12.640625 -4.804688 12.40625 -3.742188 11.9375 -2.796875 C 11.46875 -1.859375 10.78125 -1.113281 9.875 -0.5625 C 8.96875 -0.0195312 7.914062 0.25 6.71875 0.25 Z M 6.71875 -1.703125 C 7.882812 -1.703125 8.785156 -2.078125 9.421875 -2.828125 C 10.066406 -3.578125 10.390625 -4.628906 10.390625 -5.984375 C 10.390625 -7.328125 10.066406 -8.375 9.421875 -9.125 C 8.785156 -9.875 7.882812 -10.25 6.71875 -10.25 C 5.539062 -10.25 4.628906 -9.875 3.984375 -9.125 C 3.347656 -8.375 3.03125 -7.328125 3.03125 -5.984375 C 3.03125 -4.628906 3.347656 -3.578125 3.984375 -2.828125 C 4.628906 -2.078125 5.539062 -1.703125 6.71875 -1.703125 Z M 6.71875 -1.703125 "/></g></g></g><g fill="#ffde59" fill-opacity="1"><g transform="translate(127.954395, 24.158021)"><g><path d="M 7.390625 -12.203125 C 10.648438 -12.203125 12.28125 -10.332031 12.28125 -6.59375 L 12.28125 0 L 10.078125 0 L 10.078125 -6.59375 C 10.078125 -7.875 9.835938 -8.800781 9.359375 -9.375 C 8.878906 -9.957031 8.078125 -10.25 6.953125 -10.25 C 6.234375 -10.25 5.582031 -10.117188 5 -9.859375 C 4.414062 -9.597656 3.976562 -9.207031 3.6875 -8.6875 L 3.6875 0 L 1.484375 0 L 1.484375 -11.953125 L 3.203125 -11.953125 L 3.4375 -10.6875 C 4.070312 -11.257812 4.710938 -11.65625 5.359375 -11.875 C 6.003906 -12.09375 6.679688 -12.203125 7.390625 -12.203125 Z M 7.390625 -12.203125 "/></g></g></g></g></g></svg>