<svg xmlns="http://www.w3.org/2000/svg" xmlns:xlink="http://www.w3.org/1999/xlink" width="393" zoomAndPan="magnify" viewBox="0 0 294.75 159.750002" height="213" preserveAspectRatio="xMidYMid meet" version="1.0"><defs><g/><clipPath id="a78f3e93c9"><path d="M 0.105469 0 L 294.394531 0 L 294.394531 159.5 L 0.105469 159.5 Z M 0.105469 0 " clip-rule="nonzero"/></clipPath><linearGradient x1="0" gradientTransform="matrix(0.748828, 0, 0, 0.748828, 0.105467, 0.00000698906)" y1="106.5" x2="392.999984" gradientUnits="userSpaceOnUse" y2="106.5" id="13a148c2c7"><stop stop-opacity="1" stop-color="rgb(96.859741%, 58.428955%, 88.62915%)" offset="0"/><stop stop-opacity="1" stop-color="rgb(96.871948%, 58.442688%, 88.40332%)" offset="0.00390625"/><stop stop-opacity="1" stop-color="rgb(96.884155%, 58.456421%, 88.179016%)" offset="0.0078125"/><stop stop-opacity="1" stop-color="rgb(96.896362%, 58.470154%, 87.953186%)" offset="0.0117187"/><stop stop-opacity="1" stop-color="rgb(96.908569%, 58.483887%, 87.728882%)" offset="0.015625"/><stop stop-opacity="1" stop-color="rgb(96.920776%, 58.49762%, 87.503052%)" offset="0.0195312"/><stop stop-opacity="1" stop-color="rgb(96.932983%, 58.511353%, 87.278748%)" offset="0.0234375"/><stop stop-opacity="1" stop-color="rgb(96.94519%, 58.525085%, 87.052917%)" offset="0.0273438"/><stop stop-opacity="1" stop-color="rgb(96.957397%, 58.538818%, 86.827087%)" offset="0.03125"/><stop stop-opacity="1" stop-color="rgb(96.969604%, 58.552551%, 86.601257%)" offset="0.0351562"/><stop stop-opacity="1" stop-color="rgb(96.981812%, 58.56781%, 86.376953%)" offset="0.0390625"/><stop stop-opacity="1" stop-color="rgb(96.994019%, 58.581543%, 86.151123%)" offset="0.0429687"/><stop stop-opacity="1" stop-color="rgb(97.006226%, 58.595276%, 85.926819%)" offset="0.046875"/><stop stop-opacity="1" stop-color="rgb(97.018433%, 58.609009%, 85.700989%)" offset="0.0507812"/><stop stop-opacity="1" stop-color="rgb(97.03064%, 58.622742%, 85.476685%)" offset="0.0546875"/><stop stop-opacity="1" stop-color="rgb(97.042847%, 58.636475%, 85.250854%)" offset="0.0585938"/><stop stop-opacity="1" stop-color="rgb(97.055054%, 58.650208%, 85.02655%)" offset="0.0625"/><stop stop-opacity="1" stop-color="rgb(97.067261%, 58.66394%, 84.80072%)" offset="0.0664062"/><stop stop-opacity="1" stop-color="rgb(97.079468%, 58.677673%, 84.576416%)" offset="0.0703125"/><stop stop-opacity="1" stop-color="rgb(97.091675%, 58.691406%, 84.350586%)" offset="0.0742187"/><stop stop-opacity="1" stop-color="rgb(97.103882%, 58.705139%, 84.124756%)" offset="0.078125"/><stop stop-opacity="1" stop-color="rgb(97.116089%, 58.718872%, 83.898926%)" offset="0.0820312"/><stop stop-opacity="1" stop-color="rgb(97.129822%, 58.732605%, 83.674622%)" offset="0.0859375"/><stop stop-opacity="1" stop-color="rgb(97.142029%, 58.746338%, 83.448792%)" offset="0.0898437"/><stop stop-opacity="1" stop-color="rgb(97.154236%, 58.760071%, 83.224487%)" offset="0.09375"/><stop stop-opacity="1" stop-color="rgb(97.166443%, 58.773804%, 82.998657%)" offset="0.0976562"/><stop stop-opacity="1" stop-color="rgb(97.17865%, 58.787537%, 82.774353%)" offset="0.101562"/><stop stop-opacity="1" stop-color="rgb(97.190857%, 58.80127%, 82.548523%)" offset="0.105469"/><stop stop-opacity="1" stop-color="rgb(97.203064%, 58.815002%, 82.324219%)" offset="0.109375"/><stop stop-opacity="1" stop-color="rgb(97.215271%, 58.828735%, 82.098389%)" offset="0.113281"/><stop stop-opacity="1" stop-color="rgb(97.227478%, 58.842468%, 81.874084%)" offset="0.117188"/><stop stop-opacity="1" stop-color="rgb(97.239685%, 58.856201%, 81.648254%)" offset="0.121094"/><stop stop-opacity="1" stop-color="rgb(97.251892%, 58.869934%, 81.422424%)" offset="0.125"/><stop stop-opacity="1" stop-color="rgb(97.264099%, 58.883667%, 81.196594%)" offset="0.128906"/><stop stop-opacity="1" stop-color="rgb(97.276306%, 58.8974%, 80.97229%)" offset="0.132812"/><stop stop-opacity="1" stop-color="rgb(97.288513%, 58.911133%, 80.74646%)" offset="0.136719"/><stop stop-opacity="1" stop-color="rgb(97.30072%, 58.926392%, 80.522156%)" offset="0.140625"/><stop stop-opacity="1" stop-color="rgb(97.312927%, 58.940125%, 80.296326%)" offset="0.144531"/><stop stop-opacity="1" stop-color="rgb(97.325134%, 58.953857%, 80.072021%)" offset="0.148437"/><stop stop-opacity="1" stop-color="rgb(97.337341%, 58.96759%, 79.846191%)" offset="0.152344"/><stop stop-opacity="1" stop-color="rgb(97.349548%, 58.981323%, 79.621887%)" offset="0.15625"/><stop stop-opacity="1" stop-color="rgb(97.361755%, 58.995056%, 79.396057%)" offset="0.160156"/><stop stop-opacity="1" stop-color="rgb(97.373962%, 59.008789%, 79.171753%)" offset="0.164062"/><stop stop-opacity="1" stop-color="rgb(97.386169%, 59.022522%, 78.945923%)" offset="0.167969"/><stop stop-opacity="1" stop-color="rgb(97.398376%, 59.036255%, 78.720093%)" offset="0.171875"/><stop stop-opacity="1" stop-color="rgb(97.410583%, 59.049988%, 78.494263%)" offset="0.175781"/><stop stop-opacity="1" stop-color="rgb(97.422791%, 59.063721%, 78.269958%)" offset="0.179687"/><stop stop-opacity="1" stop-color="rgb(97.434998%, 59.077454%, 78.044128%)" offset="0.183594"/><stop stop-opacity="1" stop-color="rgb(97.44873%, 59.091187%, 77.819824%)" offset="0.1875"/><stop stop-opacity="1" stop-color="rgb(97.460938%, 59.104919%, 77.593994%)" offset="0.191406"/><stop stop-opacity="1" stop-color="rgb(97.473145%, 59.118652%, 77.36969%)" offset="0.195312"/><stop stop-opacity="1" stop-color="rgb(97.485352%, 59.132385%, 77.14386%)" offset="0.199219"/><stop stop-opacity="1" stop-color="rgb(97.497559%, 59.146118%, 76.919556%)" offset="0.203125"/><stop stop-opacity="1" stop-color="rgb(97.509766%, 59.159851%, 76.693726%)" offset="0.207031"/><stop stop-opacity="1" stop-color="rgb(97.521973%, 59.173584%, 76.469421%)" offset="0.210938"/><stop stop-opacity="1" stop-color="rgb(97.53418%, 59.187317%, 76.243591%)" offset="0.214844"/><stop stop-opacity="1" stop-color="rgb(97.546387%, 59.20105%, 76.017761%)" offset="0.21875"/><stop stop-opacity="1" stop-color="rgb(97.558594%, 59.214783%, 75.791931%)" offset="0.222656"/><stop stop-opacity="1" stop-color="rgb(97.570801%, 59.228516%, 75.567627%)" offset="0.226562"/><stop stop-opacity="1" stop-color="rgb(97.583008%, 59.242249%, 75.341797%)" offset="0.230469"/><stop stop-opacity="1" stop-color="rgb(97.595215%, 59.255981%, 75.117493%)" offset="0.234375"/><stop stop-opacity="1" stop-color="rgb(97.607422%, 59.269714%, 74.891663%)" offset="0.238281"/><stop stop-opacity="1" stop-color="rgb(97.619629%, 59.283447%, 74.667358%)" offset="0.242188"/><stop stop-opacity="1" stop-color="rgb(97.631836%, 59.29718%, 74.441528%)" offset="0.246094"/><stop stop-opacity="1" stop-color="rgb(97.644043%, 59.312439%, 74.217224%)" offset="0.25"/><stop stop-opacity="1" stop-color="rgb(97.65625%, 59.326172%, 73.991394%)" offset="0.253906"/><stop stop-opacity="1" stop-color="rgb(97.668457%, 59.339905%, 73.76709%)" offset="0.257812"/><stop stop-opacity="1" stop-color="rgb(97.680664%, 59.353638%, 73.54126%)" offset="0.261719"/><stop stop-opacity="1" stop-color="rgb(97.692871%, 59.367371%, 73.31543%)" offset="0.265625"/><stop stop-opacity="1" stop-color="rgb(97.705078%, 59.381104%, 73.0896%)" offset="0.269531"/><stop stop-opacity="1" stop-color="rgb(97.717285%, 59.394836%, 72.865295%)" offset="0.273437"/><stop stop-opacity="1" stop-color="rgb(97.729492%, 59.408569%, 72.639465%)" offset="0.277344"/><stop stop-opacity="1" stop-color="rgb(97.741699%, 59.422302%, 72.415161%)" offset="0.28125"/><stop stop-opacity="1" stop-color="rgb(97.753906%, 59.436035%, 72.189331%)" offset="0.285156"/><stop stop-opacity="1" stop-color="rgb(97.767639%, 59.449768%, 71.965027%)" offset="0.289062"/><stop stop-opacity="1" stop-color="rgb(97.779846%, 59.463501%, 71.739197%)" offset="0.292969"/><stop stop-opacity="1" stop-color="rgb(97.792053%, 59.477234%, 71.514893%)" offset="0.296875"/><stop stop-opacity="1" stop-color="rgb(97.80426%, 59.490967%, 71.289062%)" offset="0.300781"/><stop stop-opacity="1" stop-color="rgb(97.816467%, 59.5047%, 71.064758%)" offset="0.304687"/><stop stop-opacity="1" stop-color="rgb(97.828674%, 59.518433%, 70.838928%)" offset="0.308594"/><stop stop-opacity="1" stop-color="rgb(97.840881%, 59.532166%, 70.613098%)" offset="0.3125"/><stop stop-opacity="1" stop-color="rgb(97.853088%, 59.545898%, 70.387268%)" offset="0.316406"/><stop stop-opacity="1" stop-color="rgb(97.865295%, 59.559631%, 70.162964%)" offset="0.320312"/><stop stop-opacity="1" stop-color="rgb(97.877502%, 59.573364%, 69.937134%)" offset="0.324219"/><stop stop-opacity="1" stop-color="rgb(97.889709%, 59.587097%, 69.71283%)" offset="0.328125"/><stop stop-opacity="1" stop-color="rgb(97.901917%, 59.60083%, 69.487%)" offset="0.332031"/><stop stop-opacity="1" stop-color="rgb(97.914124%, 59.614563%, 69.262695%)" offset="0.335937"/><stop stop-opacity="1" stop-color="rgb(97.926331%, 59.628296%, 69.036865%)" offset="0.339844"/><stop stop-opacity="1" stop-color="rgb(97.938538%, 59.642029%, 68.812561%)" offset="0.34375"/><stop stop-opacity="1" stop-color="rgb(97.950745%, 59.655762%, 68.586731%)" offset="0.347656"/><stop stop-opacity="1" stop-color="rgb(97.962952%, 59.669495%, 68.360901%)" offset="0.351562"/><stop stop-opacity="1" stop-color="rgb(97.975159%, 59.683228%, 68.135071%)" offset="0.355469"/><stop stop-opacity="1" stop-color="rgb(97.987366%, 59.698486%, 67.910767%)" offset="0.359375"/><stop stop-opacity="1" stop-color="rgb(97.999573%, 59.712219%, 67.684937%)" offset="0.363281"/><stop stop-opacity="1" stop-color="rgb(98.01178%, 59.725952%, 67.460632%)" offset="0.367187"/><stop stop-opacity="1" stop-color="rgb(98.023987%, 59.739685%, 67.234802%)" offset="0.371094"/><stop stop-opacity="1" stop-color="rgb(98.036194%, 59.753418%, 67.010498%)" offset="0.375"/><stop stop-opacity="1" stop-color="rgb(98.048401%, 59.767151%, 66.784668%)" offset="0.378906"/><stop stop-opacity="1" stop-color="rgb(98.060608%, 59.780884%, 66.560364%)" offset="0.382812"/><stop stop-opacity="1" stop-color="rgb(98.072815%, 59.794617%, 66.334534%)" offset="0.386719"/><stop stop-opacity="1" stop-color="rgb(98.086548%, 59.80835%, 66.110229%)" offset="0.390625"/><stop stop-opacity="1" stop-color="rgb(98.098755%, 59.822083%, 65.884399%)" offset="0.394531"/><stop stop-opacity="1" stop-color="rgb(98.110962%, 59.835815%, 65.658569%)" offset="0.398438"/><stop stop-opacity="1" stop-color="rgb(98.123169%, 59.849548%, 65.432739%)" offset="0.402344"/><stop stop-opacity="1" stop-color="rgb(98.135376%, 59.863281%, 65.208435%)" offset="0.40625"/><stop stop-opacity="1" stop-color="rgb(98.147583%, 59.877014%, 64.982605%)" offset="0.410156"/><stop stop-opacity="1" stop-color="rgb(98.15979%, 59.890747%, 64.758301%)" offset="0.414062"/><stop stop-opacity="1" stop-color="rgb(98.171997%, 59.90448%, 64.532471%)" offset="0.417969"/><stop stop-opacity="1" stop-color="rgb(98.184204%, 59.918213%, 64.308167%)" offset="0.421875"/><stop stop-opacity="1" stop-color="rgb(98.196411%, 59.931946%, 64.082336%)" offset="0.425781"/><stop stop-opacity="1" stop-color="rgb(98.208618%, 59.945679%, 63.858032%)" offset="0.429688"/><stop stop-opacity="1" stop-color="rgb(98.220825%, 59.959412%, 63.632202%)" offset="0.433594"/><stop stop-opacity="1" stop-color="rgb(98.233032%, 59.973145%, 63.407898%)" offset="0.4375"/><stop stop-opacity="1" stop-color="rgb(98.245239%, 59.986877%, 63.182068%)" offset="0.441406"/><stop stop-opacity="1" stop-color="rgb(98.257446%, 60.00061%, 62.956238%)" offset="0.445312"/><stop stop-opacity="1" stop-color="rgb(98.269653%, 60.014343%, 62.730408%)" offset="0.449219"/><stop stop-opacity="1" stop-color="rgb(98.28186%, 60.028076%, 62.506104%)" offset="0.453125"/><stop stop-opacity="1" stop-color="rgb(98.294067%, 60.041809%, 62.280273%)" offset="0.457031"/><stop stop-opacity="1" stop-color="rgb(98.306274%, 60.057068%, 62.055969%)" offset="0.460938"/><stop stop-opacity="1" stop-color="rgb(98.318481%, 60.070801%, 61.830139%)" offset="0.464844"/><stop stop-opacity="1" stop-color="rgb(98.330688%, 60.084534%, 61.605835%)" offset="0.46875"/><stop stop-opacity="1" stop-color="rgb(98.342896%, 60.098267%, 61.380005%)" offset="0.472656"/><stop stop-opacity="1" stop-color="rgb(98.355103%, 60.112%, 61.155701%)" offset="0.476562"/><stop stop-opacity="1" stop-color="rgb(98.36731%, 60.125732%, 60.929871%)" offset="0.480469"/><stop stop-opacity="1" stop-color="rgb(98.379517%, 60.139465%, 60.705566%)" offset="0.484375"/><stop stop-opacity="1" stop-color="rgb(98.391724%, 60.153198%, 60.479736%)" offset="0.488281"/><stop stop-opacity="1" stop-color="rgb(98.405457%, 60.166931%, 60.253906%)" offset="0.492188"/><stop stop-opacity="1" stop-color="rgb(98.417664%, 60.180664%, 60.028076%)" offset="0.496094"/><stop stop-opacity="1" stop-color="rgb(98.429871%, 60.194397%, 59.803772%)" offset="0.5"/><stop stop-opacity="1" stop-color="rgb(98.442078%, 60.20813%, 59.577942%)" offset="0.503906"/><stop stop-opacity="1" stop-color="rgb(98.454285%, 60.221863%, 59.353638%)" offset="0.507812"/><stop stop-opacity="1" stop-color="rgb(98.466492%, 60.235596%, 59.127808%)" offset="0.511719"/><stop stop-opacity="1" stop-color="rgb(98.478699%, 60.249329%, 58.903503%)" offset="0.515625"/><stop stop-opacity="1" stop-color="rgb(98.490906%, 60.263062%, 58.677673%)" offset="0.519531"/><stop stop-opacity="1" stop-color="rgb(98.503113%, 60.276794%, 58.453369%)" offset="0.523437"/><stop stop-opacity="1" stop-color="rgb(98.51532%, 60.290527%, 58.227539%)" offset="0.527344"/><stop stop-opacity="1" stop-color="rgb(98.527527%, 60.30426%, 58.003235%)" offset="0.53125"/><stop stop-opacity="1" stop-color="rgb(98.539734%, 60.317993%, 57.777405%)" offset="0.535156"/><stop stop-opacity="1" stop-color="rgb(98.551941%, 60.331726%, 57.551575%)" offset="0.539062"/><stop stop-opacity="1" stop-color="rgb(98.564148%, 60.345459%, 57.325745%)" offset="0.542969"/><stop stop-opacity="1" stop-color="rgb(98.576355%, 60.359192%, 57.10144%)" offset="0.546875"/><stop stop-opacity="1" stop-color="rgb(98.588562%, 60.372925%, 56.87561%)" offset="0.550781"/><stop stop-opacity="1" stop-color="rgb(98.600769%, 60.386658%, 56.651306%)" offset="0.554687"/><stop stop-opacity="1" stop-color="rgb(98.612976%, 60.400391%, 56.425476%)" offset="0.558594"/><stop stop-opacity="1" stop-color="rgb(98.625183%, 60.414124%, 56.201172%)" offset="0.5625"/><stop stop-opacity="1" stop-color="rgb(98.63739%, 60.427856%, 55.975342%)" offset="0.566406"/><stop stop-opacity="1" stop-color="rgb(98.649597%, 60.443115%, 55.751038%)" offset="0.570312"/><stop stop-opacity="1" stop-color="rgb(98.661804%, 60.456848%, 55.525208%)" offset="0.574219"/><stop stop-opacity="1" stop-color="rgb(98.674011%, 60.470581%, 55.300903%)" offset="0.578125"/><stop stop-opacity="1" stop-color="rgb(98.686218%, 60.484314%, 55.075073%)" offset="0.582031"/><stop stop-opacity="1" stop-color="rgb(98.698425%, 60.498047%, 54.849243%)" offset="0.585937"/><stop stop-opacity="1" stop-color="rgb(98.710632%, 60.51178%, 54.623413%)" offset="0.589844"/><stop stop-opacity="1" stop-color="rgb(98.724365%, 60.525513%, 54.399109%)" offset="0.59375"/><stop stop-opacity="1" stop-color="rgb(98.736572%, 60.539246%, 54.173279%)" offset="0.597656"/><stop stop-opacity="1" stop-color="rgb(98.748779%, 60.552979%, 53.948975%)" offset="0.601562"/><stop stop-opacity="1" stop-color="rgb(98.760986%, 60.566711%, 53.723145%)" offset="0.605469"/><stop stop-opacity="1" stop-color="rgb(98.773193%, 60.580444%, 53.49884%)" offset="0.609375"/><stop stop-opacity="1" stop-color="rgb(98.7854%, 60.594177%, 53.27301%)" offset="0.613281"/><stop stop-opacity="1" stop-color="rgb(98.797607%, 60.60791%, 53.048706%)" offset="0.617187"/><stop stop-opacity="1" stop-color="rgb(98.809814%, 60.621643%, 52.822876%)" offset="0.621094"/><stop stop-opacity="1" stop-color="rgb(98.822021%, 60.635376%, 52.598572%)" offset="0.625"/><stop stop-opacity="1" stop-color="rgb(98.834229%, 60.649109%, 52.372742%)" offset="0.628906"/><stop stop-opacity="1" stop-color="rgb(98.846436%, 60.662842%, 52.146912%)" offset="0.632812"/><stop stop-opacity="1" stop-color="rgb(98.858643%, 60.676575%, 51.921082%)" offset="0.636719"/><stop stop-opacity="1" stop-color="rgb(98.87085%, 60.690308%, 51.696777%)" offset="0.640625"/><stop stop-opacity="1" stop-color="rgb(98.883057%, 60.704041%, 51.470947%)" offset="0.644531"/><stop stop-opacity="1" stop-color="rgb(98.895264%, 60.717773%, 51.246643%)" offset="0.648437"/><stop stop-opacity="1" stop-color="rgb(98.907471%, 60.731506%, 51.020813%)" offset="0.652344"/><stop stop-opacity="1" stop-color="rgb(98.919678%, 60.745239%, 50.796509%)" offset="0.65625"/><stop stop-opacity="1" stop-color="rgb(98.931885%, 60.758972%, 50.570679%)" offset="0.660156"/><stop stop-opacity="1" stop-color="rgb(98.944092%, 60.772705%, 50.346375%)" offset="0.664062"/><stop stop-opacity="1" stop-color="rgb(98.956299%, 60.786438%, 50.120544%)" offset="0.667969"/><stop stop-opacity="1" stop-color="rgb(98.968506%, 60.801697%, 49.89624%)" offset="0.671875"/><stop stop-opacity="1" stop-color="rgb(98.980713%, 60.81543%, 49.67041%)" offset="0.675781"/><stop stop-opacity="1" stop-color="rgb(98.99292%, 60.829163%, 49.44458%)" offset="0.679687"/><stop stop-opacity="1" stop-color="rgb(99.005127%, 60.842896%, 49.21875%)" offset="0.683594"/><stop stop-opacity="1" stop-color="rgb(99.017334%, 60.856628%, 48.994446%)" offset="0.6875"/><stop stop-opacity="1" stop-color="rgb(99.029541%, 60.870361%, 48.768616%)" offset="0.691406"/><stop stop-opacity="1" stop-color="rgb(99.043274%, 60.884094%, 48.544312%)" offset="0.695312"/><stop stop-opacity="1" stop-color="rgb(99.055481%, 60.897827%, 48.318481%)" offset="0.699219"/><stop stop-opacity="1" stop-color="rgb(99.067688%, 60.91156%, 48.094177%)" offset="0.703125"/><stop stop-opacity="1" stop-color="rgb(99.079895%, 60.925293%, 47.868347%)" offset="0.707031"/><stop stop-opacity="1" stop-color="rgb(99.092102%, 60.939026%, 47.644043%)" offset="0.710937"/><stop stop-opacity="1" stop-color="rgb(99.104309%, 60.952759%, 47.418213%)" offset="0.714844"/><stop stop-opacity="1" stop-color="rgb(99.116516%, 60.966492%, 47.193909%)" offset="0.71875"/><stop stop-opacity="1" stop-color="rgb(99.128723%, 60.980225%, 46.968079%)" offset="0.722656"/><stop stop-opacity="1" stop-color="rgb(99.14093%, 60.993958%, 46.742249%)" offset="0.726562"/><stop stop-opacity="1" stop-color="rgb(99.153137%, 61.00769%, 46.516418%)" offset="0.730469"/><stop stop-opacity="1" stop-color="rgb(99.165344%, 61.021423%, 46.292114%)" offset="0.734375"/><stop stop-opacity="1" stop-color="rgb(99.177551%, 61.035156%, 46.066284%)" offset="0.738281"/><stop stop-opacity="1" stop-color="rgb(99.189758%, 61.048889%, 45.84198%)" offset="0.742187"/><stop stop-opacity="1" stop-color="rgb(99.201965%, 61.062622%, 45.61615%)" offset="0.746094"/><stop stop-opacity="1" stop-color="rgb(99.214172%, 61.076355%, 45.391846%)" offset="0.75"/><stop stop-opacity="1" stop-color="rgb(99.226379%, 61.090088%, 45.166016%)" offset="0.753906"/><stop stop-opacity="1" stop-color="rgb(99.238586%, 61.103821%, 44.941711%)" offset="0.757812"/><stop stop-opacity="1" stop-color="rgb(99.250793%, 61.117554%, 44.715881%)" offset="0.761719"/><stop stop-opacity="1" stop-color="rgb(99.263%, 61.131287%, 44.491577%)" offset="0.765625"/><stop stop-opacity="1" stop-color="rgb(99.275208%, 61.14502%, 44.265747%)" offset="0.769531"/><stop stop-opacity="1" stop-color="rgb(99.287415%, 61.158752%, 44.039917%)" offset="0.773438"/><stop stop-opacity="1" stop-color="rgb(99.299622%, 61.172485%, 43.814087%)" offset="0.777344"/><stop stop-opacity="1" stop-color="rgb(99.311829%, 61.187744%, 43.589783%)" offset="0.78125"/><stop stop-opacity="1" stop-color="rgb(99.324036%, 61.201477%, 43.363953%)" offset="0.785156"/><stop stop-opacity="1" stop-color="rgb(99.336243%, 61.21521%, 43.139648%)" offset="0.789062"/><stop stop-opacity="1" stop-color="rgb(99.34845%, 61.228943%, 42.913818%)" offset="0.792969"/><stop stop-opacity="1" stop-color="rgb(99.362183%, 61.242676%, 42.689514%)" offset="0.796875"/><stop stop-opacity="1" stop-color="rgb(99.37439%, 61.256409%, 42.463684%)" offset="0.800781"/><stop stop-opacity="1" stop-color="rgb(99.386597%, 61.270142%, 42.23938%)" offset="0.804688"/><stop stop-opacity="1" stop-color="rgb(99.398804%, 61.283875%, 42.01355%)" offset="0.808594"/><stop stop-opacity="1" stop-color="rgb(99.411011%, 61.297607%, 41.789246%)" offset="0.8125"/><stop stop-opacity="1" stop-color="rgb(99.423218%, 61.31134%, 41.563416%)" offset="0.816406"/><stop stop-opacity="1" stop-color="rgb(99.435425%, 61.325073%, 41.337585%)" offset="0.820312"/><stop stop-opacity="1" stop-color="rgb(99.447632%, 61.338806%, 41.111755%)" offset="0.824219"/><stop stop-opacity="1" stop-color="rgb(99.459839%, 61.352539%, 40.887451%)" offset="0.828125"/><stop stop-opacity="1" stop-color="rgb(99.472046%, 61.366272%, 40.661621%)" offset="0.832031"/><stop stop-opacity="1" stop-color="rgb(99.484253%, 61.380005%, 40.437317%)" offset="0.835938"/><stop stop-opacity="1" stop-color="rgb(99.49646%, 61.393738%, 40.211487%)" offset="0.839844"/><stop stop-opacity="1" stop-color="rgb(99.508667%, 61.407471%, 39.987183%)" offset="0.84375"/><stop stop-opacity="1" stop-color="rgb(99.520874%, 61.421204%, 39.761353%)" offset="0.847656"/><stop stop-opacity="1" stop-color="rgb(99.533081%, 61.434937%, 39.537048%)" offset="0.851562"/><stop stop-opacity="1" stop-color="rgb(99.545288%, 61.448669%, 39.311218%)" offset="0.855469"/><stop stop-opacity="1" stop-color="rgb(99.557495%, 61.462402%, 39.086914%)" offset="0.859375"/><stop stop-opacity="1" stop-color="rgb(99.569702%, 61.476135%, 38.861084%)" offset="0.863281"/><stop stop-opacity="1" stop-color="rgb(99.581909%, 61.489868%, 38.635254%)" offset="0.867188"/><stop stop-opacity="1" stop-color="rgb(99.594116%, 61.503601%, 38.409424%)" offset="0.871094"/><stop stop-opacity="1" stop-color="rgb(99.606323%, 61.517334%, 38.18512%)" offset="0.875"/><stop stop-opacity="1" stop-color="rgb(99.61853%, 61.531067%, 37.95929%)" offset="0.878906"/><stop stop-opacity="1" stop-color="rgb(99.630737%, 61.546326%, 37.734985%)" offset="0.882812"/><stop stop-opacity="1" stop-color="rgb(99.642944%, 61.560059%, 37.509155%)" offset="0.886719"/><stop stop-opacity="1" stop-color="rgb(99.655151%, 61.573792%, 37.284851%)" offset="0.890625"/><stop stop-opacity="1" stop-color="rgb(99.667358%, 61.587524%, 37.059021%)" offset="0.894531"/><stop stop-opacity="1" stop-color="rgb(99.681091%, 61.601257%, 36.834717%)" offset="0.898438"/><stop stop-opacity="1" stop-color="rgb(99.693298%, 61.61499%, 36.608887%)" offset="0.902344"/><stop stop-opacity="1" stop-color="rgb(99.705505%, 61.628723%, 36.384583%)" offset="0.90625"/><stop stop-opacity="1" stop-color="rgb(99.717712%, 61.642456%, 36.158752%)" offset="0.910156"/><stop stop-opacity="1" stop-color="rgb(99.729919%, 61.656189%, 35.932922%)" offset="0.914062"/><stop stop-opacity="1" stop-color="rgb(99.742126%, 61.669922%, 35.707092%)" offset="0.917969"/><stop stop-opacity="1" stop-color="rgb(99.754333%, 61.683655%, 35.482788%)" offset="0.921875"/><stop stop-opacity="1" stop-color="rgb(99.766541%, 61.697388%, 35.256958%)" offset="0.925781"/><stop stop-opacity="1" stop-color="rgb(99.778748%, 61.711121%, 35.032654%)" offset="0.929688"/><stop stop-opacity="1" stop-color="rgb(99.790955%, 61.724854%, 34.806824%)" offset="0.933594"/><stop stop-opacity="1" stop-color="rgb(99.803162%, 61.738586%, 34.58252%)" offset="0.9375"/><stop stop-opacity="1" stop-color="rgb(99.815369%, 61.752319%, 34.356689%)" offset="0.941406"/><stop stop-opacity="1" stop-color="rgb(99.827576%, 61.766052%, 34.132385%)" offset="0.945312"/><stop stop-opacity="1" stop-color="rgb(99.839783%, 61.779785%, 33.906555%)" offset="0.949219"/><stop stop-opacity="1" stop-color="rgb(99.85199%, 61.793518%, 33.682251%)" offset="0.953125"/><stop stop-opacity="1" stop-color="rgb(99.864197%, 61.807251%, 33.456421%)" offset="0.957031"/><stop stop-opacity="1" stop-color="rgb(99.876404%, 61.820984%, 33.230591%)" offset="0.960938"/><stop stop-opacity="1" stop-color="rgb(99.888611%, 61.834717%, 33.004761%)" offset="0.964844"/><stop stop-opacity="1" stop-color="rgb(99.900818%, 61.84845%, 32.780457%)" offset="0.96875"/><stop stop-opacity="1" stop-color="rgb(99.913025%, 61.862183%, 32.554626%)" offset="0.972656"/><stop stop-opacity="1" stop-color="rgb(99.925232%, 61.875916%, 32.330322%)" offset="0.976562"/><stop stop-opacity="1" stop-color="rgb(99.937439%, 61.889648%, 32.104492%)" offset="0.980469"/><stop stop-opacity="1" stop-color="rgb(99.949646%, 61.903381%, 31.880188%)" offset="0.984375"/><stop stop-opacity="1" stop-color="rgb(99.961853%, 61.917114%, 31.654358%)" offset="0.988281"/><stop stop-opacity="1" stop-color="rgb(99.97406%, 61.932373%, 31.430054%)" offset="0.992188"/><stop stop-opacity="1" stop-color="rgb(99.986267%, 61.946106%, 31.204224%)" offset="0.996094"/><stop stop-opacity="1" stop-color="rgb(99.998474%, 61.959839%, 30.979919%)" offset="1"/></linearGradient><clipPath id="2406655cdc"><path d="M 91 15 L 108 15 L 108 39.320312 L 91 39.320312 Z M 91 15 " clip-rule="nonzero"/></clipPath><clipPath id="519b6a7864"><rect x="0" width="188" y="0" height="40"/></clipPath></defs><g clip-path="url(#a78f3e93c9)"><path fill="#ffffff" d="M 0.105469 0 L 294.394531 0 L 294.394531 159.5 L 0.105469 159.5 Z M 0.105469 0 " fill-opacity="1" fill-rule="nonzero"/><path fill="url(#13a148c2c7)" d="M 0.105469 0 L 0.105469 159.5 L 294.394531 159.5 L 294.394531 0 Z M 0.105469 0 " fill-rule="nonzero"/></g><g transform="matrix(1, 0, 0, 1, 59, 63)"><g clip-path="url(#519b6a7864)"><g fill="#ffde59" fill-opacity="1"><g transform="translate(0.797564, 31.226395)"><g><path d="M 12.625 0.453125 C 10.4375 0.453125 8.484375 -0.03125 6.765625 -1 C 5.046875 -1.96875 3.695312 -3.335938 2.71875 -5.109375 C 1.738281 -6.878906 1.25 -8.929688 1.25 -11.265625 C 1.25 -13.609375 1.742188 -15.664062 2.734375 -17.4375 C 3.722656 -19.207031 5.085938 -20.578125 6.828125 -21.546875 C 8.566406 -22.515625 10.539062 -23 12.75 -23 C 13.84375 -23 14.914062 -22.878906 15.96875 -22.640625 C 17.019531 -22.398438 17.957031 -22.078125 18.78125 -21.671875 L 18.453125 -18.84375 C 16.515625 -19.757812 14.601562 -20.21875 12.71875 -20.21875 C 11 -20.21875 9.523438 -19.828125 8.296875 -19.046875 C 7.078125 -18.265625 6.15625 -17.195312 5.53125 -15.84375 C 4.914062 -14.488281 4.609375 -12.960938 4.609375 -11.265625 C 4.609375 -9.578125 4.914062 -8.054688 5.53125 -6.703125 C 6.15625 -5.347656 7.066406 -4.273438 8.265625 -3.484375 C 9.472656 -2.703125 10.9375 -2.3125 12.65625 -2.3125 C 14.675781 -2.3125 16.609375 -2.765625 18.453125 -3.671875 L 18.78125 -0.84375 C 16.90625 0.0195312 14.851562 0.453125 12.625 0.453125 Z M 12.625 0.453125 "/></g></g></g><g fill="#ffde59" fill-opacity="1"><g transform="translate(20.180653, 31.226395)"><g><path d="M 8.859375 0.328125 C 7.242188 0.328125 5.84375 -0.03125 4.65625 -0.75 C 3.476562 -1.46875 2.578125 -2.453125 1.953125 -3.703125 C 1.335938 -4.953125 1.03125 -6.347656 1.03125 -7.890625 C 1.03125 -9.429688 1.335938 -10.820312 1.953125 -12.0625 C 2.578125 -13.3125 3.476562 -14.296875 4.65625 -15.015625 C 5.84375 -15.742188 7.242188 -16.109375 8.859375 -16.109375 C 10.441406 -16.109375 11.828125 -15.742188 13.015625 -15.015625 C 14.210938 -14.296875 15.125 -13.3125 15.75 -12.0625 C 16.375 -10.820312 16.6875 -9.429688 16.6875 -7.890625 C 16.6875 -6.347656 16.375 -4.953125 15.75 -3.703125 C 15.125 -2.453125 14.210938 -1.46875 13.015625 -0.75 C 11.828125 -0.03125 10.441406 0.328125 8.859375 0.328125 Z M 8.859375 -2.25 C 10.398438 -2.25 11.59375 -2.742188 12.4375 -3.734375 C 13.289062 -4.722656 13.71875 -6.109375 13.71875 -7.890625 C 13.71875 -9.671875 13.289062 -11.054688 12.4375 -12.046875 C 11.59375 -13.035156 10.398438 -13.53125 8.859375 -13.53125 C 7.304688 -13.53125 6.109375 -13.035156 5.265625 -12.046875 C 4.421875 -11.054688 4 -9.671875 4 -7.890625 C 4 -6.109375 4.421875 -4.722656 5.265625 -3.734375 C 6.109375 -2.742188 7.304688 -2.25 8.859375 -2.25 Z M 8.859375 -2.25 "/></g></g></g><g fill="#ffde59" fill-opacity="1"><g transform="translate(37.889469, 31.226395)"><g><path d="M 20.390625 -16.109375 C 24.421875 -16.109375 26.4375 -13.84375 26.4375 -9.3125 L 26.4375 0 L 23.546875 0 L 23.546875 -9.28125 C 23.546875 -10.757812 23.253906 -11.835938 22.671875 -12.515625 C 22.085938 -13.191406 21.144531 -13.53125 19.84375 -13.53125 C 17.050781 -13.53125 15.65625 -12.066406 15.65625 -9.140625 L 15.65625 0 L 12.75 0 L 12.75 -8.6875 C 12.75 -10.5 12.429688 -11.757812 11.796875 -12.46875 C 11.171875 -13.175781 10.253906 -13.53125 9.046875 -13.53125 C 8.097656 -13.53125 7.257812 -13.359375 6.53125 -13.015625 C 5.800781 -12.671875 5.242188 -12.15625 4.859375 -11.46875 L 4.859375 0 L 1.96875 0 L 1.96875 -15.78125 L 4.21875 -15.78125 L 4.546875 -14.109375 C 5.335938 -14.816406 6.132812 -15.328125 6.9375 -15.640625 C 7.738281 -15.953125 8.601562 -16.109375 9.53125 -16.109375 C 11.9375 -16.109375 13.632812 -15.054688 14.625 -12.953125 C 15.71875 -15.054688 17.640625 -16.109375 20.390625 -16.109375 Z M 20.390625 -16.109375 "/></g></g></g><g fill="#ffde59" fill-opacity="1"><g transform="translate(66.126975, 31.226395)"><g><path d="M 1.96875 -22.546875 L 4.859375 -22.546875 L 4.859375 -19.328125 L 1.96875 -19.328125 Z M 1.96875 -15.78125 L 4.859375 -15.78125 L 4.859375 0 L 1.96875 0 Z M 1.96875 -15.78125 "/></g></g></g><g fill="#ffde59" fill-opacity="1"><g transform="translate(72.952912, 31.226395)"><g><path d="M 9.75 -16.109375 C 14.050781 -16.109375 16.203125 -13.632812 16.203125 -8.6875 L 16.203125 0 L 13.296875 0 L 13.296875 -8.6875 C 13.296875 -10.382812 12.976562 -11.613281 12.34375 -12.375 C 11.71875 -13.144531 10.660156 -13.53125 9.171875 -13.53125 C 8.234375 -13.53125 7.375 -13.359375 6.59375 -13.015625 C 5.820312 -12.671875 5.242188 -12.15625 4.859375 -11.46875 L 4.859375 0 L 1.96875 0 L 1.96875 -15.78125 L 4.21875 -15.78125 L 4.546875 -14.109375 C 5.378906 -14.859375 6.21875 -15.378906 7.0625 -15.671875 C 7.914062 -15.960938 8.8125 -16.109375 9.75 -16.109375 Z M 9.75 -16.109375 "/></g></g></g><g clip-path="url(#2406655cdc)"><g fill="#ffde59" fill-opacity="1"><g transform="translate(90.951493, 31.226395)"><g><path d="M 8.34375 8.046875 C 6.101562 8.046875 4.289062 7.640625 2.90625 6.828125 C 1.53125 6.015625 0.84375 4.851562 0.84375 3.34375 C 0.84375 1.695312 1.753906 0.460938 3.578125 -0.359375 C 2.546875 -0.867188 2.03125 -1.53125 2.03125 -2.34375 C 2.03125 -3.375 2.648438 -4.140625 3.890625 -4.640625 C 3.015625 -5.171875 2.335938 -5.898438 1.859375 -6.828125 C 1.390625 -7.753906 1.15625 -8.796875 1.15625 -9.953125 C 1.15625 -11.109375 1.414062 -12.148438 1.9375 -13.078125 C 2.46875 -14.015625 3.222656 -14.753906 4.203125 -15.296875 C 5.179688 -15.835938 6.335938 -16.109375 7.671875 -16.109375 C 9.085938 -16.109375 10.375 -15.695312 11.53125 -14.875 C 12.664062 -15.519531 13.972656 -15.84375 15.453125 -15.84375 L 15.71875 -15.84375 L 15.359375 -13.90625 L 14.625 -13.90625 C 14.425781 -13.90625 14.144531 -13.882812 13.78125 -13.84375 C 13.414062 -13.800781 13.09375 -13.75 12.8125 -13.6875 C 13.269531 -13.164062 13.613281 -12.582031 13.84375 -11.9375 C 14.082031 -11.300781 14.203125 -10.640625 14.203125 -9.953125 C 14.203125 -8.742188 13.9375 -7.660156 13.40625 -6.703125 C 12.882812 -5.753906 12.128906 -5.003906 11.140625 -4.453125 C 10.148438 -3.910156 8.992188 -3.640625 7.671875 -3.640625 C 6.890625 -3.640625 6.175781 -3.734375 5.53125 -3.921875 C 5.039062 -3.753906 4.796875 -3.476562 4.796875 -3.09375 C 4.796875 -2.570312 5.382812 -2.226562 6.5625 -2.0625 L 10.78125 -1.390625 C 12.539062 -1.109375 13.875 -0.601562 14.78125 0.125 C 15.6875 0.851562 16.140625 1.863281 16.140625 3.15625 C 16.140625 4.769531 15.445312 5.988281 14.0625 6.8125 C 12.675781 7.632812 10.769531 8.046875 8.34375 8.046875 Z M 7.671875 -5.953125 C 8.867188 -5.953125 9.796875 -6.3125 10.453125 -7.03125 C 11.109375 -7.75 11.4375 -8.710938 11.4375 -9.921875 C 11.4375 -11.078125 11.109375 -12.007812 10.453125 -12.71875 C 9.796875 -13.425781 8.867188 -13.78125 7.671875 -13.78125 C 6.460938 -13.78125 5.535156 -13.425781 4.890625 -12.71875 C 4.242188 -12.007812 3.921875 -11.078125 3.921875 -9.921875 C 3.921875 -8.710938 4.242188 -7.75 4.890625 -7.03125 C 5.535156 -6.3125 6.460938 -5.953125 7.671875 -5.953125 Z M 8.59375 5.46875 C 10.070312 5.46875 11.207031 5.273438 12 4.890625 C 12.800781 4.503906 13.203125 3.945312 13.203125 3.21875 C 13.203125 2.664062 12.957031 2.222656 12.46875 1.890625 C 11.988281 1.554688 11.269531 1.289062 10.3125 1.09375 L 5.796875 0.328125 C 5.148438 0.617188 4.625 0.984375 4.21875 1.421875 C 3.8125 1.867188 3.609375 2.359375 3.609375 2.890625 C 3.609375 3.773438 4.046875 4.425781 4.921875 4.84375 C 5.804688 5.257812 7.03125 5.46875 8.59375 5.46875 Z M 8.59375 5.46875 "/></g></g></g></g><g fill="#ffde59" fill-opacity="1"><g transform="translate(106.986015, 31.226395)"><g/></g></g><g fill="#ffde59" fill-opacity="1"><g transform="translate(114.23052, 31.226395)"><g><path d="M 9.015625 0.453125 C 7.679688 0.453125 6.328125 0.304688 4.953125 0.015625 C 3.578125 -0.273438 2.472656 -0.613281 1.640625 -1 L 2.0625 -4.25 C 3.132812 -3.738281 4.347656 -3.285156 5.703125 -2.890625 C 7.054688 -2.503906 8.394531 -2.3125 9.71875 -2.3125 C 11.226562 -2.3125 12.394531 -2.585938 13.21875 -3.140625 C 14.039062 -3.691406 14.453125 -4.515625 14.453125 -5.609375 C 14.453125 -6.421875 14.242188 -7.097656 13.828125 -7.640625 C 13.410156 -8.191406 12.796875 -8.65625 11.984375 -9.03125 C 11.179688 -9.40625 10.0625 -9.804688 8.625 -10.234375 C 7.164062 -10.671875 5.953125 -11.132812 4.984375 -11.625 C 4.023438 -12.113281 3.25 -12.785156 2.65625 -13.640625 C 2.0625 -14.503906 1.765625 -15.59375 1.765625 -16.90625 C 1.765625 -18.726562 2.46875 -20.195312 3.875 -21.3125 C 5.28125 -22.4375 7.265625 -23 9.828125 -23 C 11.203125 -23 12.503906 -22.847656 13.734375 -22.546875 C 14.972656 -22.242188 16.050781 -21.878906 16.96875 -21.453125 L 16.65625 -18.1875 C 15.445312 -18.894531 14.285156 -19.410156 13.171875 -19.734375 C 12.054688 -20.054688 10.894531 -20.21875 9.6875 -20.21875 C 8.289062 -20.21875 7.179688 -19.957031 6.359375 -19.4375 C 5.535156 -18.925781 5.125 -18.132812 5.125 -17.0625 C 5.125 -16.332031 5.3125 -15.734375 5.6875 -15.265625 C 6.0625 -14.796875 6.601562 -14.394531 7.3125 -14.0625 C 8.019531 -13.726562 9.003906 -13.367188 10.265625 -12.984375 C 12.804688 -12.203125 14.695312 -11.28125 15.9375 -10.21875 C 17.1875 -9.15625 17.8125 -7.691406 17.8125 -5.828125 C 17.8125 -3.847656 17.066406 -2.304688 15.578125 -1.203125 C 14.097656 -0.0976562 11.910156 0.453125 9.015625 0.453125 Z M 9.015625 0.453125 "/></g></g></g><g fill="#ffde59" fill-opacity="1"><g transform="translate(133.034058, 31.226395)"><g><path d="M 8.859375 0.328125 C 7.242188 0.328125 5.84375 -0.03125 4.65625 -0.75 C 3.476562 -1.46875 2.578125 -2.453125 1.953125 -3.703125 C 1.335938 -4.953125 1.03125 -6.347656 1.03125 -7.890625 C 1.03125 -9.429688 1.335938 -10.820312 1.953125 -12.0625 C 2.578125 -13.3125 3.476562 -14.296875 4.65625 -15.015625 C 5.84375 -15.742188 7.242188 -16.109375 8.859375 -16.109375 C 10.441406 -16.109375 11.828125 -15.742188 13.015625 -15.015625 C 14.210938 -14.296875 15.125 -13.3125 15.75 -12.0625 C 16.375 -10.820312 16.6875 -9.429688 16.6875 -7.890625 C 16.6875 -6.347656 16.375 -4.953125 15.75 -3.703125 C 15.125 -2.453125 14.210938 -1.46875 13.015625 -0.75 C 11.828125 -0.03125 10.441406 0.328125 8.859375 0.328125 Z M 8.859375 -2.25 C 10.398438 -2.25 11.59375 -2.742188 12.4375 -3.734375 C 13.289062 -4.722656 13.71875 -6.109375 13.71875 -7.890625 C 13.71875 -9.671875 13.289062 -11.054688 12.4375 -12.046875 C 11.59375 -13.035156 10.398438 -13.53125 8.859375 -13.53125 C 7.304688 -13.53125 6.109375 -13.035156 5.265625 -12.046875 C 4.421875 -11.054688 4 -9.671875 4 -7.890625 C 4 -6.109375 4.421875 -4.722656 5.265625 -3.734375 C 6.109375 -2.742188 7.304688 -2.25 8.859375 -2.25 Z M 8.859375 -2.25 "/></g></g></g><g fill="#ffde59" fill-opacity="1"><g transform="translate(150.742873, 31.226395)"><g><path d="M 8.859375 0.328125 C 7.242188 0.328125 5.84375 -0.03125 4.65625 -0.75 C 3.476562 -1.46875 2.578125 -2.453125 1.953125 -3.703125 C 1.335938 -4.953125 1.03125 -6.347656 1.03125 -7.890625 C 1.03125 -9.429688 1.335938 -10.820312 1.953125 -12.0625 C 2.578125 -13.3125 3.476562 -14.296875 4.65625 -15.015625 C 5.84375 -15.742188 7.242188 -16.109375 8.859375 -16.109375 C 10.441406 -16.109375 11.828125 -15.742188 13.015625 -15.015625 C 14.210938 -14.296875 15.125 -13.3125 15.75 -12.0625 C 16.375 -10.820312 16.6875 -9.429688 16.6875 -7.890625 C 16.6875 -6.347656 16.375 -4.953125 15.75 -3.703125 C 15.125 -2.453125 14.210938 -1.46875 13.015625 -0.75 C 11.828125 -0.03125 10.441406 0.328125 8.859375 0.328125 Z M 8.859375 -2.25 C 10.398438 -2.25 11.59375 -2.742188 12.4375 -3.734375 C 13.289062 -4.722656 13.71875 -6.109375 13.71875 -7.890625 C 13.71875 -9.671875 13.289062 -11.054688 12.4375 -12.046875 C 11.59375 -13.035156 10.398438 -13.53125 8.859375 -13.53125 C 7.304688 -13.53125 6.109375 -13.035156 5.265625 -12.046875 C 4.421875 -11.054688 4 -9.671875 4 -7.890625 C 4 -6.109375 4.421875 -4.722656 5.265625 -3.734375 C 6.109375 -2.742188 7.304688 -2.25 8.859375 -2.25 Z M 8.859375 -2.25 "/></g></g></g><g fill="#ffde59" fill-opacity="1"><g transform="translate(168.451689, 31.226395)"><g><path d="M 9.75 -16.109375 C 14.050781 -16.109375 16.203125 -13.632812 16.203125 -8.6875 L 16.203125 0 L 13.296875 0 L 13.296875 -8.6875 C 13.296875 -10.382812 12.976562 -11.613281 12.34375 -12.375 C 11.71875 -13.144531 10.660156 -13.53125 9.171875 -13.53125 C 8.234375 -13.53125 7.375 -13.359375 6.59375 -13.015625 C 5.820312 -12.671875 5.242188 -12.15625 4.859375 -11.46875 L 4.859375 0 L 1.96875 0 L 1.96875 -15.78125 L 4.21875 -15.78125 L 4.546875 -14.109375 C 5.378906 -14.859375 6.21875 -15.378906 7.0625 -15.671875 C 7.914062 -15.960938 8.8125 -16.109375 9.75 -16.109375 Z M 9.75 -16.109375 "/></g></g></g></g></g></svg>